<?xml version="1.0" encoding="utf-8"?>
<!-- Generator: Adobe Illustrator 23.0.1, SVG Export Plug-In . SVG Version: 6.00 Build 0)  -->
<svg version="1.1" id="Layer_1" xmlns="http://www.w3.org/2000/svg" xmlns:xlink="http://www.w3.org/1999/xlink" x="0px" y="0px"
	 viewBox="0 0 100 100" style="enable-background:new 0 0 100 100;" xml:space="preserve">
<style type="text/css">
	.st0{fill:#B0AFB0;}
</style>
<path class="st0" d="M50,1.9c-4.1,0-7.5,5-10,14.9c-2.3,8.9-3.5,20.7-3.5,33.2s1.2,24.3,3.5,33.2c2.5,9.9,5.9,14.9,10,14.9
	c4.1,0,7.5-5,10-14.9c2.3-8.9,3.5-20.7,3.5-33.2S62.3,25.7,60,16.8C57.5,6.9,54.1,1.9,50,1.9z M60,48.3c-0.1,0-0.2,0-0.2,0H40.2
	c-0.1,0-0.2,0-0.2,0c0.1-6,0.4-11.8,1-17.2h18C59.6,36.5,60,42.3,60,48.3z M40,51.7c0.1,0,0.2,0,0.2,0h19.6c0.1,0,0.2,0,0.2,0
	c-0.1,6-0.4,11.8-1,17.2H41C40.4,63.5,40,57.7,40,51.7z M50,5.3c1.6,0,4.3,3.2,6.6,12.3c0.8,3,1.4,6.4,1.9,10.1H41.4
	c0.5-3.6,1.2-7,1.9-10.1C45.7,8.5,48.4,5.3,50,5.3z M50,94.7c-1.6,0-4.3-3.2-6.6-12.3c-0.8-3-1.4-6.4-1.9-10.1h17.2
	c-0.5,3.6-1.2,7-1.9,10.1C54.3,91.5,51.6,94.7,50,94.7z M82.6,35.2l0.1-18.1h0H71.8l0,18.1l4.2,4.2v42.4h-2.3
	c-0.3,0-0.5,0.5-0.5,1.2c0,0.7,0.2,1.2,0.5,1.2h7c0.3,0,0.5-0.5,0.5-1.2c0-0.7-0.2-1.2-0.5-1.2h-2.3V39.3L82.6,35.2z M77.2,37.2
	l-3-3V19.4h6.1v14.7L77.2,37.2z M22.3,61.8V19.4h2.3c0.3,0,0.5-0.5,0.5-1.2c0-0.7-0.2-1.2-0.5-1.2h-7c-0.3,0-0.5,0.5-0.5,1.2
	c0,0.7,0.2,1.2,0.5,1.2H20v42.5L15.9,66l-0.1,18.1h0h10.8l0-18.1L22.3,61.8z M24.2,81.8h-6.1V67.1l3.1-3.1l3,3V81.8z"/>
</svg>
