<?xml version="1.0" encoding="utf-8"?>
<!-- Generator: Adobe Illustrator 23.0.1, SVG Export Plug-In . SVG Version: 6.00 Build 0)  -->
<svg version="1.1" id="Layer_1" xmlns="http://www.w3.org/2000/svg" xmlns:xlink="http://www.w3.org/1999/xlink" x="0px" y="0px"
	 viewBox="0 0 100 100" style="enable-background:new 0 0 100 100;" xml:space="preserve">
<style type="text/css">
	.st0{fill:#B0AFB0;}
</style>
<path class="st0" d="M50,5.5c-11.5,0-20.9,9.4-20.9,20.9v47.3c0,11.5,9.4,20.9,20.9,20.9c11.5,0,20.9-9.4,20.9-20.9V26.4
	C70.9,14.8,61.5,5.5,50,5.5z M67.7,73.6c0,9.8-7.9,17.7-17.7,17.7c-9.8,0-17.7-7.9-17.7-17.7V26.4c0-9.8,7.9-17.7,17.7-17.7
	c9.8,0,17.7,7.9,17.7,17.7V73.6z M50,13.5c-7,0-12.7,5.7-12.7,12.7v47.5c0,7,5.7,12.7,12.7,12.7s12.7-5.7,12.7-12.7V26.3
	C62.7,19.2,57,13.5,50,13.5z M59.6,65.7H40.4V34.3h19.1V65.7z M50,83.3c-5.3,0-9.6-4.3-9.6-9.6v-4.9h19.1v4.9
	C59.6,79,55.3,83.3,50,83.3z M59.6,31.2H40.4v-4.9c0-5.3,4.3-9.6,9.6-9.6c5.3,0,9.6,4.3,9.6,9.6V31.2z M89.8,34.2l0.1-18.1h0H79.1
	l0,18.1l4.2,4.2v42.4H81c-0.3,0-0.5,0.5-0.5,1.2c0,0.7,0.2,1.2,0.5,1.2h7c0.3,0,0.5-0.5,0.5-1.2c0-0.7-0.2-1.2-0.5-1.2h-2.3V38.3
	L89.8,34.2z M84.5,36.2l-3-3V18.5h6.1v14.7L84.5,36.2z M16.7,60.9V18.5H19c0.3,0,0.5-0.5,0.5-1.2c0-0.7-0.2-1.2-0.5-1.2h-7
	c-0.3,0-0.5,0.5-0.5,1.2c0,0.7,0.2,1.2,0.5,1.2h2.3V61l-4.1,4.1l-0.1,18.1h0h10.8l0-18.1L16.7,60.9z M18.6,80.8h-6.1V66.2l3.1-3.1
	l3,3V80.8z"/>
</svg>
